<svg xmlns="http://www.w3.org/2000/svg" width="24" height="24" viewBox="0 0 24 24" fill="none" stroke="#e2e8f0" strokeWidth="1.5" strokeLinecap="round" strokeLinejoin="round"><path d="M12 15.5a3.5 3.5 0 100-7 3.5 3.5 0 000 7z"/><path d="M19.4 15a1.65 1.65 0 00.33 1.82l.06.06a2 2 0 01-2.83 2.83l-.06-.06a1.65 1.65 0 00-1.82-.33 1.65 1.65 0 00-1 1.51V21a2 2 0 01-4 0v-.09a1.65 1.65 0 00-1-1.51 1.65 1.65 0 00-1.82.33l-.06.06A2 2 0 013.3 17.9l.06-.06a1.65 1.65 0 00.33-1.82 1.65 1.65 0 00-1.51-1H3a2 2 0 010-4h.09a1.65 1.65 0 001.51-1 1.65 1.65 0 00-.33-1.82L3.3 3.3A2 2 0 016.13.47l.06.06A1.65 1.65 0 008 1.15c.5.2 1 .2 1.51.09H10a2 2 0 014 0h.49c.51.11 1.01.11 1.51-.09a1.65 1.65 0 001.82-.33l.06-.06A2 2 0 0120.7 3.3l-.06.06a1.65 1.65 0 00-.33 1.82c.2.5.2 1 .09 1.51V10a2 2 0 010 4v.49c.11.51.11 1.01-.09 1.51z"/></svg>